<svg xmlns="http://www.w3.org/2000/svg" xmlns:xlink="http://www.w3.org/1999/xlink" viewBox="0 0 5000 5000"><defs><style>.cls-1,.cls-10{fill:#fff;}.cls-2{fill:url(#linear-gradient);}.cls-3{fill:#d7e0ff;}.cls-4{fill:#b2c3fb;}.cls-5{fill:#cdd9f9;}.cls-6{fill:#81b5ff;}.cls-30,.cls-7{fill:#0199fe;}.cls-7{opacity:0.15;}.cls-33,.cls-8{fill:#07ae7b;}.cls-9{fill:#000d3a;}.cls-10{stroke:#000d3a;stroke-miterlimit:10;stroke-width:3px;}.cls-11{fill:#f05831;}.cls-12{fill:#3b58a8;}.cls-13{fill:#2d4177;}.cls-14{fill:#fc9d9d;}.cls-15{fill:#ffc1c2;}.cls-16{fill:#ffa7a6;}.cls-17{fill:#005a3d;}.cls-18{fill:#0dcc8c;}.cls-19{fill:#000b28;}.cls-20{fill:#9cafe5;}.cls-21{fill:#021449;}.cls-22{fill:#ff684a;}.cls-23{fill:#24355b;}.cls-24{fill:#e32710;}.cls-25{fill:#f48771;}.cls-26{fill:#101e44;}.cls-27{fill:#f7b633;}.cls-28{fill:url(#linear-gradient-2);}.cls-29{fill:url(#linear-gradient-3);}.cls-30{opacity:0.12;}.cls-31{fill:#114dbd;opacity:0.5;}.cls-32{opacity:0.74;}.cls-33{opacity:0.51;}</style><linearGradient id="linear-gradient" x1="2258.25" y1="2769.87" x2="2098.56" y2="3144.53" gradientUnits="userSpaceOnUse"><stop offset="0" stop-color="#fff"/><stop offset="1" stop-color="#eaf0ff"/></linearGradient><linearGradient id="linear-gradient-2" x1="3403.69" y1="6976.49" x2="3493.96" y2="6976.49" gradientTransform="matrix(0.3, -0.95, -0.95, -0.3, 6706.74, 9129.35)" gradientUnits="userSpaceOnUse"><stop offset="0" stop-color="#3b58a8"/><stop offset="1" stop-color="#3b58a8"/></linearGradient><linearGradient id="linear-gradient-3" x1="4548.89" y1="5877.17" x2="4632.22" y2="5877.17" gradientTransform="matrix(-0.2, -0.98, -0.98, 0.2, 8278.6, 6688.95)" xlink:href="#linear-gradient-2"/></defs><title>Asset 10</title><g id="Layer_2" data-name="Layer 2"><g id="Layer_1-2" data-name="Layer 1"><rect class="cls-1" width="5000" height="5000"/><g id="_10" data-name="10"><path class="cls-2" d="M2437.31,1814.57c-646.65,27.32-735.29-470.13-1102.49-126.2s-232.77,691.81-419.75,930.52-710.66,532-192.34,648.43,193.15,392.22,698.1,539.81,634.81-403.2,1233.21-339.7,1157.33,12.86,1108.19-662S3041,1695.13,2437.31,1814.57Z"/><path class="cls-3" d="M2962.57,1368.68v660.74a93,93,0,0,0,93,93H4287.68a93,93,0,0,0,93-93V1368.68a93,93,0,0,0-93-93H3055.54A93,93,0,0,0,2962.57,1368.68Z"/><path class="cls-4" d="M3642.26,1736.28l295.41,93.08c-44.23,119.8-157.81,206.66-293.26,210.25a320,320,0,0,1-174.67-46.17Z"/><path class="cls-4" d="M3620.28,1713.52l-176.21,262.67c-76.46-56.89-127-147-129.77-249.61-4.57-172.41,127.39-316.71,297.59-329.3Z"/><path class="cls-4" d="M3699.27,1705.53l221.4-193.06a321.7,321.7,0,0,1,58.75,281.34Z"/><path class="cls-4" d="M3650.46,1684.81l-7.65-288.35a320.82,320.82,0,0,1,225.06,98.76Z"/><path class="cls-5" d="M3642.26,1710.18l295.41,93.09c-44.23,119.79-157.81,206.65-293.26,210.25a320.08,320.08,0,0,1-174.67-46.17Z"/><path class="cls-5" d="M3620.28,1687.43l-176.21,262.66c-76.46-56.88-127-146.95-129.77-249.61-4.57-172.41,127.39-316.7,297.59-329.3Z"/><path class="cls-5" d="M3699.27,1679.43l221.4-193a321.68,321.68,0,0,1,58.75,281.33Z"/><path class="cls-5" d="M3650.46,1658.71l-7.65-288.35a320.79,320.79,0,0,1,225.06,98.77Z"/><path class="cls-1" d="M3426.47,1625.52a5.86,5.86,0,0,0,3.13-.89,5.94,5.94,0,0,0,1.91-8.18l-94-151a5.93,5.93,0,0,0-5-2.79H3072.36a5.93,5.93,0,0,0,0,11.86H3329.2l92.23,148.22A5.91,5.91,0,0,0,3426.47,1625.52Z"/><circle class="cls-1" cx="3063.13" cy="1468.57" r="43.85"/><path class="cls-6" d="M3711.31,1442.48a5.91,5.91,0,0,0,5-2.8l140.82-226.3h589.75a5.94,5.94,0,0,0,0-11.87H3853.87a5.91,5.91,0,0,0-5,2.8l-142.55,229.1a5.93,5.93,0,0,0,5,9.07Z"/><circle class="cls-6" cx="4456.15" cy="1207.44" r="43.85"/><path class="cls-1" d="M3926.06,1621.27a5.91,5.91,0,0,0,5-2.8l63.34-101.79H4185a5.94,5.94,0,1,0,0-11.87H3991.14a5.9,5.9,0,0,0-5,2.8L3921,1612.2a5.94,5.94,0,0,0,5,9.07Z"/><circle class="cls-1" cx="4194.25" cy="1510.74" r="43.85"/><path class="cls-1" d="M3898,2007h193.88a5.94,5.94,0,1,0,0-11.87H3901.25l-63.34-101.8a5.94,5.94,0,0,0-10.08,6.27l65.08,104.6A5.94,5.94,0,0,0,3898,2007Z"/><circle class="cls-1" cx="4101.06" cy="2001.1" r="43.85"/><path class="cls-7" d="M1493.58,1507.32v310a23.31,23.31,0,0,1-23.93,23.3c-192.4-5-390.89,37-594.55,83.57a23.33,23.33,0,0,1-28.56-22.72v-329.8a23.36,23.36,0,0,1,18.09-22.73c205.83-48,408.08-70.76,606.3-64.92A23.34,23.34,0,0,1,1493.58,1507.32Z"/><path class="cls-8" d="M1334.82,1578.71v56.07c-107.06,3.44-215.9,15-326.36,34.11v-57.37Q1173.28,1583.5,1334.82,1578.71Z"/><path class="cls-8" d="M1334.82,1688.37v56.07c-107.06,3.43-215.9,15-326.36,34.1v-57.36Q1173.28,1693.15,1334.82,1688.37Z"/><path class="cls-9" d="M2719.23,1580.33c250.77,9.22,325.49,74.72,323.44,125.9s-175.72,62.48-248.74,36.85S2719.23,1580.33,2719.23,1580.33Z"/><rect class="cls-10" x="1511.56" y="1668.98" width="1951.59" height="1400.23" rx="51.24"/><path class="cls-11" d="M2437.31,2142.17v-327.6c-311.41,1-563.54,253.81-563.54,565.47s252.13,564.44,563.54,565.47V2617.92c-130.49-1-235.95-107.13-235.95-237.88S2306.82,2143.2,2437.31,2142.17Z"/><path class="cls-12" d="M2879.82,2784.42c-98.71,104.38-238.5,169.53-393.5,169.53-.62,0-1.25,0-1.87,0V2640.26c.62,0,1.25,0,1.87,0a227.5,227.5,0,0,0,185.88-96.09Z"/><path class="cls-13" d="M2943.68,2020.34l-249.55,249.57a249.76,249.76,0,0,0-226.7-144.82c-.67,0-1.37,0-2,0V1781.2c.67,0,1.37,0,2,0C2662.42,1781.18,2835.44,1875.18,2943.68,2020.34Z"/><path class="cls-4" d="M3074.74,2380a591.64,591.64,0,0,1-162.21,407.79l-227.64-263.4a250.08,250.08,0,0,0,22.89-249.32l249.54-249.57A591,591,0,0,1,3074.74,2380Z"/><path class="cls-14" d="M2831.49,2797.11a64.22,64.22,0,0,0,16,19.36c25.95,20.17,213,110.65,255.93,109.27s29.13-129,29.13-129c-15.93-2.83-34.48-5.23-54.41-7.54-72-8.24-162-14.64-210.7-30.73l-3.06-1a77.22,77.22,0,0,0-14.86-3.1C2819.84,2751.44,2820.16,2776.43,2831.49,2797.11Z"/><path class="cls-14" d="M2831.49,2797.11c2.92,1.31,6,2.53,9.27,3.63,41.23,13.86,47.95-6.22,48.44-18.68a39.56,39.56,0,0,0-.55-8.58,239.51,239.51,0,0,1-24.28-16c-6.07-4.48-11.78-9-17.2-13.21-19-15-34.27-26.79-47.34-23.36C2779.64,2726.2,2782.84,2775.35,2831.49,2797.11Z"/><path class="cls-15" d="M2271.31,3714.92c.09,3.8,45.33,33.51,103.39,66,22.27,12.43,40.65,20.75,55.46,24.28,17,4.09,29.34,1.85,37.37-7.7,3.25-3.84,5.78-8.87,7.67-15.12,6.83-22.75,33.44-38.74,76.67-52.68v0q4.92-1.58,10.15-3.13l-31.88-49.92c-4.29,2.42-7.94,4.42-10.85,6-13.77,7.26-33,17.36-55.09,25.92-21.4,8.3-45.51,15.13-70,16.53-16.06.94-32.28-.45-48-5.32C2281.49,3699.72,2271.24,3711.11,2271.31,3714.92Z"/><path class="cls-16" d="M2389,3736.9c2.35,17,45.73,59.11,78.57,60.58,3.25-3.84,5.78-8.87,7.67-15.12,6.83-22.75,33.44-38.74,76.67-52.68v0c-5.21-17.76-22.32-7.67-22.32-7.67-35,11.7-50.24-7.37-65.35-13.5-21.4,8.3-45.51,15.13-70,16.53C2390.42,3728.44,2388.34,3732.37,2389,3736.9Z"/><path class="cls-17" d="M2402.41,3733.57c40.68-15.87,53.8-14.75,63.06-27.83s-37.72-8.72-64.14,8.84S2402.41,3733.57,2402.41,3733.57Z"/><path class="cls-17" d="M2452.14,3820.45c-8.6,6.14-21.82,16.2-25.5,16s-57.82-30.66-86.1-45.31-88-55.79-89.47-60.49c-3.21-10.45,6.14-21.45,6.14-21.45Z"/><path class="cls-18" d="M2258.79,3718.56c1.74,1.12,3.85,2.46,6.25,4,41.52,26.4,174.61,107.67,187.1,97.86,24.45-15.44,42.66-39.46,50.76-50.57s-12.5-5.81-20.07-.18c-3.77,2.81-20.54-8.38-36.95-22.23-12.42-10.5-24.65-22.52-30.84-31.17-2.44-3.41,3.58-19.18-.35-17.73-7,2.55-31,18.88-56,13.37-41.49-9.12-86.56-22.92-101.46-2.77A6.54,6.54,0,0,0,2258.79,3718.56Z"/><path class="cls-17" d="M2397,3704.52c3.16,8.68-3.7,16.64-7.14,11.15s-3.86-9.66-2.3-11.35S2395.24,3703.59,2397,3704.52Z"/><path class="cls-17" d="M2378.15,3710.06c3.16,8.68-3.7,16.65-7.14,11.15s-3.86-9.65-2.3-11.34S2376.36,3709.13,2378.15,3710.06Z"/><path class="cls-17" d="M2362.59,3708c2.29,8.95-5.31,16.2-8.2,10.4s-2.9-10-1.18-11.52S2360.9,3706.9,2362.59,3708Z"/><path class="cls-8" d="M2265,3722.58c41.52,26.4,174.61,107.67,187.1,97.86,24.45-15.44,42.66-39.46,50.76-50.57s-12.5-5.81-20.07-.18c-3.77,2.81-20.54-8.38-36.95-22.23-48.57,5.15-84.69-9.08-121.91-24.11C2293.24,3711,2264.26,3711.48,2265,3722.58Z"/><path class="cls-15" d="M2031.14,3622.45c.7,3.73,50.12,25.8,112.62,48.56,24,8.7,43.46,14,58.65,15.08,17.46,1.31,29.25-2.87,35.65-13.59,2.59-4.31,4.28-9.68,5.14-16.16,3.1-23.54,26.81-43.59,67.25-64.28v0c3.06-1.56,6.25-3.14,9.51-4.72l-39.47-44.16c-3.84,3.08-7.12,5.63-9.75,7.62-12.43,9.38-29.77,22.42-50.22,34.41-19.8,11.63-42.5,22.23-66.47,27.53a135,135,0,0,1-48.27,2.45C2038.76,3605.81,2030.46,3618.69,2031.14,3622.45Z"/><path class="cls-16" d="M2150.8,3625.29c5,16.39,54.61,51,87.26,47.21,2.59-4.31,4.28-9.68,5.14-16.16,3.1-23.54,26.81-43.59,67.25-64.28v0c-8-16.7-23.26-4-23.26-4-32.71,17.16-50.78.77-66.67-2.86-19.8,11.63-42.5,22.23-66.47,27.53C2150.88,3616.7,2149.45,3620.92,2150.8,3625.29Z"/><path class="cls-17" d="M2163.54,3619.85c37.61-22.18,50.73-23.18,57.78-37.57s-38.63-2.57-61.9,19S2163.54,3619.85,2163.54,3619.85Z"/><path class="cls-17" d="M2226.54,3697.64c-7.5,7.44-18.94,19.48-22.61,19.83s-62-21-92.25-30.92-95.82-41-98-45.38c-4.85-9.8,2.62-22.15,2.62-22.15Z"/><path class="cls-18" d="M2019.37,3628l6.81,3c45.22,19.4,189.61,78.3,200.36,66.62,21.66-19.16,35.78-45.79,42-58.06s-13.26-3.72-19.83,3c-3.28,3.38-21.63-5-40-16-13.94-8.38-27.94-18.29-35.44-25.83-2.95-3,.46-19.51-3.18-17.44-6.53,3.63-27.58,23.59-53.16,22.17-42.41-2.36-89.11-8.76-100.58,13.52A6.52,6.52,0,0,0,2019.37,3628Z"/><path class="cls-17" d="M2153.57,3592c4.51,8.07-1,17-5.26,12.15s-5.36-8.91-4.09-10.83S2151.66,3591.4,2153.57,3592Z"/><path class="cls-17" d="M2135.83,3600.53c4.5,8.07-1,17-5.27,12.15s-5.36-8.91-4.09-10.83S2133.91,3599.9,2135.83,3600.53Z"/><path class="cls-17" d="M2120.14,3601c3.69,8.46-2.65,16.84-6.43,11.57s-4.46-9.39-3-11.18S2118.29,3600.17,2120.14,3601Z"/><path class="cls-8" d="M2026.18,3631c45.22,19.4,189.61,78.3,200.36,66.62,21.66-19.16,35.78-45.79,42-58.06s-13.26-3.72-19.83,3c-3.28,3.38-21.63-5-40-16-47.12,12.86-85.05,4.6-124.2-4.27C2052.15,3615,2023.63,3620.18,2026.18,3631Z"/><path class="cls-15" d="M2724.4,2857.36a68,68,0,0,0,3.79,8.16,64.34,64.34,0,0,0,16,19.36c26,20.17,213,110.64,255.93,109.27s29.13-129,29.13-129c-7.69-1.35-16-2.62-24.76-3.82-75.05-10.31-184.67-16.07-240.35-34.45l-3.06-1C2721.69,2814,2716.08,2835.77,2724.4,2857.36Z"/><path class="cls-15" d="M2699.37,2844.57a80.83,80.83,0,0,0,28.82,20.95c2.93,1.31,6,2.53,9.27,3.63,9.43,3.16,17,4.55,23.2,4.67,31.37.6,24.69-31.93,24.69-31.93a241.21,241.21,0,0,1-24.28-16c-27.39-20.22-47.76-41-64.54-36.57C2681.51,2793.24,2679.45,2821.44,2699.37,2844.57Z"/><path class="cls-19" d="M3343.34,2773.06s-174.08,29.37-250.55,4.38l-53.71,137.38s232.1,120,281,17.37S3343.34,2773.06,3343.34,2773.06Z"/><path class="cls-20" d="M3011.06,3399.25c-90,143-418.19,355.92-455.49,341.11s-71.5-69.94-71.5-69.94c11.26-2.05,29-14.59,50.4-34,67.28-61,171.24-190,227.82-276l5.66-1.7C2811.87,3345.86,3094.17,3267.27,3011.06,3399.25Z"/><path class="cls-4" d="M2773.55,3382.16c-1.17,127.06-123.8,256.65-239.08,254.23,67.28-61,171.24-190,227.82-276l5.66-1.7C2774.64,3371.41,2773.55,3382.16,2773.55,3382.16Z"/><path class="cls-20" d="M2845.52,3191C2913,3100.85,3051.45,3086,3051.45,3086s132.2,14.63,0,76.11S2845.52,3191,2845.52,3191Z"/><path class="cls-4" d="M3157.05,3352.62c-161.63,143-421.2,91.72-565.74,82.39s-287.82,187.16-287.82,187.16-11.8-16.46-24.3-35.44c-14.47-21.91-29.86-47.21-29-54.29,1.56-13.2,140.65-214,300.74-288.6s317.05-71.5,418.75-122.79c49.84-37.44,100.15-45.69,142.51-35C3215.72,3112.1,3271.75,3251.16,3157.05,3352.62Z"/><path class="cls-20" d="M3157.05,3352.62c-161.63,143-421.2,91.72-565.74,82.39s-287.82,187.16-287.82,187.16-11.8-16.46-24.3-35.44c139.7-165.5,250.25-219.89,413.93-245.16C2862,3315.48,3111,3216.71,3112.17,3086,3215.72,3112.1,3271.75,3251.16,3157.05,3352.62Z"/><path class="cls-9" d="M2941,3122.65c-2.25,33,196.67,191,225.64,208.72s114.21-45.16,191.2-208.7,81.52-300.12,72.12-376.07c0,0-64.82-4.1-126.79,25.07-38,17.89-164.9,133.54-257.79,227.88-28.25,28.68-53.35,55.4-71.84,76.78C2953.74,3099.26,2941.48,3116.05,2941,3122.65Z"/><path class="cls-15" d="M3281,2743.3a55.24,55.24,0,0,0,4.56,35.33c9.67,19.79,32.78,37.24,76.7,39.35,70.27,3.38,104.21-56.38,104.21-56.38a141.93,141.93,0,0,0,5.16-19.78c4.17-22.1,5.59-56.7-21.52-71.14-41.34-22-103.81-29.18-103.81-29.18-3.85,4.33-7.75,8.81-11.59,13.41-.34.38-.65.77-1,1.15C3309.05,2685.48,3286.08,2718.75,3281,2743.3Z"/><path class="cls-19" d="M2973.57,3076.33c30.61-2.62,116.21-4.28,230.3-46.88,0,0-95.71-22.2-158.46-29.9C3017.16,3028.23,2992.06,3055,2973.57,3076.33Z"/><path class="cls-14" d="M2699.37,2844.57a80.83,80.83,0,0,0,28.82,20.95,64.34,64.34,0,0,0,16,19.36c26,20.17,213,110.64,255.93,109.27s29.13-129,29.13-129c-7.69-1.35-16-2.62-24.76-3.82-30.29,36.89-31.18,73.64-68.51,67.77-39.1-6.16-134.67-34-175.31-55.24a102.87,102.87,0,0,1-10.67-6.29s-11.85-4.13-25.59-10.17A207.76,207.76,0,0,1,2699.37,2844.57Z"/><path class="cls-19" d="M3287.61,2863.88c-84.83-14-98.55-17.42-98.55-17.42l-24,37.64Z"/><path class="cls-9" d="M2944.73,3013.34c-.1,5.88,104.42,27.78,192.55,37.58h0c56.64,6.3,106.5,7.59,117.45-3.55,11.14-11.34,23.23-44.84,33.73-81.07.14-.4.25-.8.37-1.23,15.73-54.46,27.87-114.56,27.87-114.56-126.11,23.32-292.42-21.74-301.86-9.4-4.82,6.31-23.06,48.8-39.7,90C2959.29,2970.45,2944.81,3008.64,2944.73,3013.34Z"/><path class="cls-21" d="M2944.73,3013.34c-.1,5.88,104.42,27.78,192.55,37.58h0c72.33-5.29,140.33-73.29,151.18-84.62,1-1,1.52-1.61,1.52-1.61l-1.15.38c-146.18,48.55-274.72-12.2-313.69-33.93C2959.29,2970.45,2944.81,3008.64,2944.73,3013.34Z"/><path class="cls-15" d="M2847.17,2744.24a41.8,41.8,0,0,0,2.34,10.11c1.7,4.27,4.32,7.84,9,14.65,4,5.82,15.2,9.35,30.67,13.06,24.72,5.93,60.34,12.25,95,29,50.89,24.53,71.82,4.82,94-21.85-72-8.24-162-14.64-210.7-30.73l-3.06-1C2858.3,2753,2852.59,2748.49,2847.17,2744.24Z"/><path class="cls-14" d="M3285.52,2778.63c9.67,19.79,32.78,37.24,76.7,39.35,70.27,3.38,104.21-56.38,104.21-56.38a141.93,141.93,0,0,0,5.16-19.78c-13.76-52.24-61.11-88.41-76.26-88.86-18.23-.53-54,1.53-60.66,1.95l-1.06.06c0,.37,0,.73.09,1.09,3.16,44.62,46.26,59.77,57,84.82,10.79,25.27-10.54,49.55-47.87,53.6C3318.17,2797.15,3297,2786.33,3285.52,2778.63Z"/><path class="cls-11" d="M3546.37,2574.36c-5.79-31-69.76-57.74-97.06-31.19,0,0-58.9-27.61-73.54,28.83,0,0-58.19-7-64,35.13-6.76,48.91,73.95,97,73.83,109.92s25.79-26.84,46.09,3.51-25.6,38.6-34.37,62.21,1.5,30.59,28.75,33.47c0,0,14.21,48.39,86.86,45.76s70.09-92.27,70.09-92.27,26.57-16.84,28.48-45.07S3585,2676,3585,2676,3644.23,2607.35,3546.37,2574.36Z"/><path class="cls-22" d="M3449.11,2556.36a33.47,33.47,0,0,0-17.82-7.93,38.9,38.9,0,0,0-20,2.68,37.58,37.58,0,0,0-16,12.46c-4,5.48-6.37,12.36-5.45,18.84a48.62,48.62,0,0,1,11.18-13.66,53.78,53.78,0,0,1,14-8.57,56.41,56.41,0,0,1,16-4A89.53,89.53,0,0,1,3449.11,2556.36Z"/><path class="cls-22" d="M3372,2591.11c-29-12.56-59.06,16.93-37.58,46.39s50.22,56.65,52.07,66.38c0,0-.75-27.65-24-62.21S3354.57,2587.72,3372,2591.11Z"/><path class="cls-6" d="M3561.6,2057.44V2308.3a31.88,31.88,0,0,1-31.88,31.89H3072.55l-29.19,7.67-58.48,15.35a17.07,17.07,0,0,1-20.81-21l15.94-58.34,15.95-58.32a17.2,17.2,0,0,1,1.52-3.76V2057.44a31.88,31.88,0,0,1,31.87-31.9h500.37A31.89,31.89,0,0,1,3561.6,2057.44Z"/><rect class="cls-1" x="3090.27" y="2115.6" width="385.58" height="17.88" rx="0.91"/><rect class="cls-1" x="3090.27" y="2173.72" width="385.58" height="17.88" rx="0.91"/><rect class="cls-1" x="3090.27" y="2236.3" width="385.58" height="17.88" rx="0.91"/><path class="cls-6" d="M2590,1257.71H2416.9a21.45,21.45,0,0,0-21.45,21.45v88.08a21.44,21.44,0,0,0,21.45,21.44h62.84l20.54,35.59a9,9,0,0,0,15.52,0l20.54-35.59H2590a21.44,21.44,0,0,0,21.44-21.44v-88.08A21.44,21.44,0,0,0,2590,1257.71Z"/><circle class="cls-1" cx="2450.92" cy="1324.73" r="13.02"/><circle class="cls-1" cx="2503.45" cy="1324.73" r="13.02"/><circle class="cls-1" cx="2555.97" cy="1324.73" r="13.02"/><path class="cls-11" d="M1375.78,1923.11l72.67-73.16a8.38,8.38,0,0,1,11.86,0l7.5,7.45a8.39,8.39,0,0,0,14-3.81l16.41-62.09a8.39,8.39,0,0,0-10.31-10.24l-62,16.83a8.38,8.38,0,0,0-3.71,14l7.5,7.45a8.4,8.4,0,0,1,0,11.87l-60.37,60.77a8.38,8.38,0,0,1-9.08,1.87l-90.57-36.44a8.37,8.37,0,0,0-9.06,1.85l-131.92,131.92a8.38,8.38,0,0,0,0,11.86l6.74,6.75a8.39,8.39,0,0,0,11.86,0L1267,1890.36a8.39,8.39,0,0,1,9.06-1.85L1366.7,1925A8.39,8.39,0,0,0,1375.78,1923.11Z"/><path class="cls-15" d="M2292.48,1864.2c-3.76,28-7.85,62.43-5.46,77.79s60.39,12.62,62.44,2.39-12.29-69.27-13-77.11S2292.48,1864.2,2292.48,1864.2Z"/><path class="cls-14" d="M2305.88,1914.56c7-14.62,22.43-24,35.34-24.84,3.27,19.25,4.47,33.37,3.86,39.54a47.18,47.18,0,0,1-6.28,18.34C2319.68,1935.89,2305.88,1914.56,2305.88,1914.56Z"/><path class="cls-15" d="M2283.13,1951.43s-4.39-26,10.11-39c4.42-4,21.88-12.53,35.27-8.94,24.56,6.56,47.78,30.81,44.86,62.11s-36.54,25-50.08,29,24.95,59.68,14.78,72.94c-8.77,11.39-35.77-40.44-49.47-91.58C2286.38,1967.71,2284.52,1959.43,2283.13,1951.43Z"/><path class="cls-13" d="M2484.85,1631.51c-135.78,75.75-141.25,257.24-141.25,257.24h-59.36s-43-97.56-11.61-196.52c25.83-81.39,91.38-167.41,188.66-207.5l0,0a303.39,303.39,0,0,1,67.21-19S2620.64,1555.77,2484.85,1631.51Z"/><path class="cls-15" d="M2969.71,1746.05A81,81,0,0,0,2951,1715.7q-3.32-3.5-7.19-6.88c-7.52-6.52-14-10.7-19.67-13.16-28.78-12.51-35,20.12-35,20.12a242.92,242.92,0,0,1,16.35,24.07c17.62,29.12,28.54,56.08,45.75,58.4C2966.68,1800.31,2979.32,1775,2969.71,1746.05Z"/><path class="cls-13" d="M2939,1698.72l-30.71,48.11c-63.85-25.37-210.67-57.47-305.78-66.88-16.19-1.62-30.89-2.58-43.42-2.73,0,0,26.78-104.4,165-89A339.37,339.37,0,0,1,2866,1637.71h0C2913.66,1667.36,2939,1698.72,2939,1698.72Z"/><path class="cls-23" d="M2484.85,1631.51c-135.78,75.75-141.25,257.24-141.25,257.24h-14.39c-8.86-50.72,23.56-143.4,40.06-216.3,18.55-81.86,40.84-136.11,92-187.72l0,0a303.39,303.39,0,0,1,67.21-19S2620.64,1555.77,2484.85,1631.51Z"/><path class="cls-23" d="M2866,1637.71s-26-14.67-64.84-15.41-96.21,56-145.34,51.85c-29.73-2.47-46.78-.18-53.29,5.8-16.19-1.62-30.89-2.58-43.42-2.73,0,0,26.78-104.4,165-89A339.37,339.37,0,0,1,2866,1637.71Z"/><path class="cls-15" d="M2519.49,1710.41c-2,.84-4.07,1.64-6.18,2.37-2.4.84-4.69,1.56-6.88,2.09,0,0-.06,0-.08,0-57.77,14.68-50-68.11-57.26-120.66-.06-.41-.1-.79-.16-1.18a10.13,10.13,0,0,0-.19-1.21c-.18-1.27-.39-2.54-.59-3.77-.29-1.72-.61-3.38-.94-5,14.41-43.71,77.17-30.09,118.2-11.12a172,172,0,0,1,22.93,12.65c7.43,5,12.3,9.52,13.36,12.76C2607.52,1615,2584.73,1683.65,2519.49,1710.41Z"/><path class="cls-14" d="M2519.49,1710.41c27.23-22,37.91-42.75,40.17-58,1.55-10.4-.82-18.26-4.55-22.25a73.33,73.33,0,0,0-14.55-11.61c-12.31-7.65-29.34-14.06-46.51-10.91-21.33,3.93-39.27-8.76-45-13.39-1.23-1-1.88-1.61-1.88-1.61a23,23,0,0,1,.94-4.55c3.46-11.77,19.51-40.76,91.85-17,19.31,6.35,35.3,10.48,48.34,13.49,7.43,5,12.3,9.52,13.36,12.76C2607.52,1615,2584.73,1683.65,2519.49,1710.41Z"/><path class="cls-11" d="M3074.75,1677.22c-66.53,44-209.48-82.9-278.06-65.5s-118.73,50.48-181.17,43.66c-29.29-3.19-42.58-14.82-52.28-27-10.91-13.76-17.22-28.23-36.77-32-36.85-7.16-93.47,13-80.51-7.84-23.89-49.82,30.36-40.26,43.66-102.7s139.21-99.29,207.79-53.23,149.44-47.43,213.92-20.63,130,52.36,187.31,24.73c17.28-8.33,28,6.22,32.78,31.81v0C3142.39,1527.85,3121.22,1646.48,3074.75,1677.22Z"/><path class="cls-24" d="M3076.8,1677.22c-66.53,44-209.48-82.9-278.06-65.5s-118.73,50.48-181.17,43.66c-29.3-3.19-42.58-14.82-52.28-27,7.88-7.55,13.65-13,13.65-13,29.74,10.46,15.41,30.67,74.27,13.9s128.46-60.45,189.87-42.68,175.54,64.32,215.46,37.2,61.92-62.95,68.07-121.3a183.35,183.35,0,0,1,6.85-34C3144.44,1527.85,3123.27,1646.48,3076.8,1677.22Z"/><path class="cls-15" d="M2568,1650.2a35.14,35.14,0,0,1-4.94,4c-.28.19-.55.37-.83.54-5.08,3.21-9.89,4.25-12.17,2.64-6-4.24-12.28-36.73-12.28-36.73.35-.37.72-.71,1.07-1.08h0c.49-.47,1-.94,1.53-1.39a41.63,41.63,0,0,1,6.37-4.55c5.42-3.17,11.46-5.12,16.85-5.16a18.91,18.91,0,0,1,6,.86h0c5.32,1.8,9.1,6.41,9.43,14.82C2579.47,1635.22,2574.23,1644.27,2568,1650.2Z"/><path class="cls-14" d="M2568,1650.2a75.29,75.29,0,0,0,5.89-16.91c3-13.84-13.3-21.39-33.32-14.76a3.34,3.34,0,0,1-.17-.36,41.63,41.63,0,0,1,6.37-4.55c5.42-3.17,11.46-5.12,16.85-5.16a18.91,18.91,0,0,1,6,.86h0c5.32,1.8,9.1,6.41,9.43,14.82C2579.47,1635.22,2574.23,1644.27,2568,1650.2Z"/><path class="cls-25" d="M2468.46,1590.06c-19.45-4.1-27.64-17.86-5.12-36.06s27.64-55,42.48-78.07-12.8,41.42-13.82,70.87,72.67,33,64.48,43.26S2496.6,1584.94,2468.46,1590.06Z"/><path class="cls-15" d="M1400.63,2293.29c-3.73,28.05-46.73,45.41-52.54,57.25s-27.7-.18-27.7-.18q-.14-1.12-.24-2.25c-4.65-44.16,7.72-72.89,17.11-78.46s13.14-10.14,17.58-20.2c1.74-4,4.91-11.36,8.51-18.78,5.57-11.42,12.22-22.94,16.47-22,7,1.65-5.88,37.37-3.82,48.54s-3.45,46.13,5.62,35.67,5.72-32.48,7.76-36.72S1404.34,2265.25,1400.63,2293.29Z"/><path class="cls-16" d="M1363.35,2230.67c-3.45,28.9-.69,53.81-14.34,66.89-17.5,16.79-7.5,46.8-18.22,52.16-2.43,1.22-6.29.62-10.64-1.61-4.65-44.16,7.72-72.89,17.11-78.46s13.14-10.14,17.58-20.2C1356.58,2245.49,1359.75,2238.09,1363.35,2230.67Z"/><path class="cls-15" d="M745.43,3133c-8.72,26.91-26.09,33.36-26.11,28.64a11.38,11.38,0,0,1,.88-3.36c2.79-7.31,11-22,7.91-33.15-2.59-9.39-8.36,4.7-13.89,17.05-2.32,5.16-4.57,10-6.54,12.73-3.28,4.55-5.87,16-8.49,26.29-2.7,10.59-5.42,19.93-9,19.16-7-1.52-5.3-36.53-5-47.51s-1-16.59-7.19-25.81-4.8-41.4,19.58-80.09c0,0,24.91-1.39,25.06,11.77,0,5.44,5.44,14.49,11.12,25.12C741.88,3099,750.56,3117.23,745.43,3133Z"/><path class="cls-16" d="M696,3149.2c-.69,11.08,1,22.08,3.15,32-2.7,10.59-5.42,19.93-9,19.16-7-1.52-5.3-36.53-5-47.51s-1-16.59-7.19-25.81-4.8-41.4,19.58-80.09c0,0,24.91-1.39,25.06,11.77,0,5.44,5.44,14.49,11.12,25.12C710.19,3092.84,698,3117.45,696,3149.2Z"/><path class="cls-12" d="M862.32,2699.62c-20.05,62.44-104.49,129.83-104.49,129.83,1.5,99.15-16.49,236.44-16.49,236.44l-30.06-3-35.18-3.56s-9.43-154.1,17.54-253.6,127.73-194.34,127.73-194.34S882.36,2637.17,862.32,2699.62Z"/><path class="cls-13" d="M862.32,2699.62c-20.05,62.44-104.49,129.83-104.49,129.83,1.5,99.15-16.49,236.44-16.49,236.44l-30.06-3c1.57-51.95,9.82-244.81,47.47-279.37,43.58-40,17.86-77.17,62.62-172.13C821.37,2611.37,882.36,2637.17,862.32,2699.62Z"/><path class="cls-26" d="M938.69,2909.09l-1.8,23.44a45.86,45.86,0,0,0,3.57,18.17s1.2,2.32,14.61.18,20.34-16.44,20.4-17.23-13.85-36.83-13.85-36.83Z"/><path class="cls-27" d="M1169.13,2830.7s253.3-4.84,315.63-3.08,63.14,50.58,63.14,50.58L1558.7,3265l-64.86,4.64s-41.53-139.82-49.68-172.45-10.34-122.69-10.34-122.69l-304.7,39-60.2-147.87Z"/><path class="cls-16" d="M1046.09,3668.79l27.24-90.51,64.62,32.41-23.35,39.57-19.6,33.22-2.12,3.58s-14.44,8.68-35.1,4.94S1046.09,3668.79,1046.09,3668.79Z"/><path class="cls-28" d="M1092.89,3687.06c6.12-1.75-1.58,18.79,2.2,23.91s9.06,8.9,14.25,12.59l31.62,22.49c6.76,4.82,13.59,9.68,19.1,15.89s9.65,14,10,22.27a4.87,4.87,0,0,1-.84,3.5,5.09,5.09,0,0,1-2.92,1.3c-13.8,2.72-28.12,1.25-41.85-1.8-7.37-1.63-14.63-3.71-21.86-5.9-7.73-2.33-15.44-4.79-23.14-7.24l-8.24-2.63L1019.7,3755c-4.08-1.3-8.69-3.09-10.11-7.13-.8-2.26-.38-4.75.11-7.09a130.15,130.15,0,0,1,21.54-49.08c5.32-7.42,11.51-14.42,14.85-22.92C1046.09,3668.79,1083.54,3689.72,1092.89,3687.06Z"/><path class="cls-13" d="M1090,3702.73q-6.86,6.42-14.22,12.23c-.91.71.07,2.23,1,1.51q7.55-6,14.57-12.53c.85-.8-.49-2-1.34-1.21Z"/><path class="cls-13" d="M1098.23,3714.32a77.1,77.1,0,0,0-14.56,17.2c-.62,1,1,1.81,1.6.83a75.49,75.49,0,0,1,14.3-16.82c.87-.77-.48-2-1.34-1.21Z"/><path class="cls-13" d="M1109.45,3725a58.82,58.82,0,0,0-8.74,14.26c-.46,1.07,1.14,1.9,1.6.83a56.92,56.92,0,0,1,8.48-13.88c.74-.9-.6-2.11-1.34-1.21Z"/><path class="cls-13" d="M1120.53,3732.23a44.83,44.83,0,0,0-6,12.62c-.33,1.12,1.44,1.5,1.77.39a43.19,43.19,0,0,1,5.85-12.18c.66-.95-1-1.77-1.6-.83Z"/><path class="cls-13" d="M1163.45,3765.76a10.62,10.62,0,0,1-1.6,6.27c-2,3.09-5.23,5.1-8.56,6.52a37.8,37.8,0,0,1-22.47,2.22c-9.35-2-17.61-7.36-26.27-11.5-21.84-10.46-46.4-12.95-69.3-20.64-4.9-1.65-10.1-3.85-12.71-8.42-1.77-3.1-2.06-6.84-2-10.42a55.17,55.17,0,0,1,8.95-28.61c3-4.58,6.7-8.67,9.56-13.36a25.32,25.32,0,0,0,4.09-13.63c-3.41,6-7.93,11.36-12,17a130.15,130.15,0,0,0-21.54,49.08c-.49,2.35-.9,4.83-.11,7.09,1.42,4,6,5.83,10.11,7.13l51.54,16.43,8.24,2.63c7.7,2.45,15.4,4.91,23.14,7.25,7.22,2.18,14.48,4.26,21.85,5.89,13.73,3,28,4.52,41.85,1.8a5.09,5.09,0,0,0,2.92-1.3,4.85,4.85,0,0,0,.84-3.49C1169.77,3777.22,1167.17,3771.09,1163.45,3765.76Z"/><path class="cls-15" d="M1095,3683.48c-7.16-11.47-2.49-34.17,2.69-38,3.36-2.51,10.86,1.08,16.91,4.81Z"/><path class="cls-20" d="M1558.7,3265l-40.35,2.9-24.52,1.76s-41.52-139.83-49.68-172.46-10.33-122.7-10.33-122.7l-304.69,39-60.21-147.89,100.2-34.92s14.51-.28,37.43-.66c72.86-1.27,230.79-3.76,278.21-2.43,62.33,1.77,63.14,50.59,63.14,50.59Z"/><path class="cls-4" d="M1277.57,3325.55c-16.32,39.8-127.54,337.3-127.54,337.3l-69-29.19-71.71-30.36s88.46-196.27,105.77-232,43.46-65.52,43.46-65.52-194-185.34-206.13-234.83-6-128.48-6-128.48l-8.9-33.35,147.6-40.29,1.2-.33,2.59,5.24.07.09c1,2,2.2,4.44,3.67,7.38l0,.07c31.13,62.57,166.16,334,170.18,342.51C1267.46,3233.4,1293.88,3285.75,1277.57,3325.55Z"/><path class="cls-20" d="M1081.06,3633.66l-71.71-30.36s88.46-196.27,105.77-232,43.46-65.52,43.46-65.52-194-185.34-206.13-234.83-6-128.48-6-128.48l-8.9-33.35,147.6-40.29a44.94,44.94,0,0,1,3.79,4.91l.07.09a28.44,28.44,0,0,1,3.67,7.38l0,.07c-56.46,67.82-72.18,127.25-21.61,209.46s147,146.28,152.53,197.86C1229,3338,1092.76,3610.38,1081.06,3633.66Z"/><path class="cls-12" d="M1186.1,2821.34c-36.28,55.25-133.91,72.23-191.68,82.13-21.1,3.6-36.88,6.28-42.41,9.52-20.15,11.75-12.07,36.21-11.57,37.65-25-43.59-11.84-109.58-30-150.57s-85.81-59.42-104.68-104.57,5.85-88.93,39.1-98.55,47.94-28.82,47.94-28.82l13.08-1.39,53.49-5.66s23.47-7.52,47.72-9.07c1.22-.08,2.42-.15,3.62-.19a91.71,91.71,0,0,1,22.3,1.56c10.22,2.19,18.75,6.8,23.3,15.18a92.17,92.17,0,0,1,5.79,14c6.73,20.19,12.35,50.59,19,80.86,5.61,25.58,12,51,20.47,70.17a100.74,100.74,0,0,0,7.87,14.84C1136.7,2790.11,1186.1,2821.34,1186.1,2821.34Z"/><path class="cls-13" d="M996.56,2903.47c-21.09,3.6-36.87,6.28-42.4,9.52-20.15,11.75-12.07,36.21-11.58,37.65-25-43.59-11.83-109.58-30-150.57s-85.82-59.42-104.69-104.57,5.86-88.93,39.11-98.55,47.93-28.82,47.93-28.82l13.08-1.39a20.6,20.6,0,0,1,1.52,7.78c-24.29,51.75-78.78,80.35-68.69,118.94s110.86,43.59,149.45,105.76C1014.38,2838,1006.15,2878.54,996.56,2903.47Z"/><path class="cls-11" d="M969.44,2416.87S937.16,2529.4,908,2522.58a31.12,31.12,0,0,0-3.56-.65l-.11,0c-.26,0-.51-.08-.75-.1s-.26,0-.38,0c-.45,0-.93-.08-1.38-.1a10.76,10.76,0,0,0-1.26-.07,19.67,19.67,0,0,0-2.66,0,12.28,12.28,0,0,0-1.37.09l-1.33.13a7,7,0,0,0-1,.15c-1,.15-2,.32-2.94.55-.42.09-.85.22-1.28.35a12.08,12.08,0,0,0-1.27.36c-.79.24-1.58.52-2.35.82s-1.63.66-2.45,1-1.46.67-2.16,1c0,0-.05,0-.07,0-.71.36-1.41.73-2.1,1.13a.82.82,0,0,0-.17.11c-.75.41-1.48.84-2.21,1.31s-1.5.94-2.25,1.43-1.48,1-2.23,1.55-1.48,1-2.23,1.61-1.63,1.2-2.44,1.84-1.63,1.26-2.47,1.91c-.64.51-1.28,1-1.95,1.54-2,1.54-3.92,3.13-5.92,4.74-2.91,2.31-5.91,4.67-9.09,7-.85.62-1.71,1.24-2.59,1.84s-1.74,1.2-2.62,1.78c-2,1.33-4.07,2.61-6.21,3.86-.54.32-1.1.62-1.63.92-.92.51-1.87,1-2.83,1.52-30.94,15.89-82.9,8.08-125.14-37.09-3.08-3.3-6-6.19-8.66-8.7-1.35-1.27-2.63-2.42-3.9-3.49a57.49,57.49,0,0,0-12.46-8.45c-.68-.34-1.35-.62-2-.88a24.84,24.84,0,0,0-14.94-1.27c-.48.09-1,.22-1.44.33a75.07,75.07,0,0,0-11.73,4.41c-1.09.47-2.23,1-3.41,1.52l-3.27,1.46c-4.36,1.91-9.22,3.93-14.82,5.77-1.07.34-2.19.71-3.32,1-.54.17-1.07.32-1.63.47s-1.12.32-1.69.47c-1.53.41-3.09.8-4.72,1.16-.64.15-1.31.3-2,.43-2.08.45-4.27.83-6.54,1.2-.22,0-.43.06-.65.11a82.34,82.34,0,0,1-35.39-2.43c-37.84-10.89-67-47.12-65.32-84.57,2.23-48.58,63.28-89.59,108.78-47.23s84.18-14.84,125.26-33.77,56.28,1.29,103.46,21.7S901.76,2346.12,924,2344a41.07,41.07,0,0,1,24.78,5.68c10.91,6.32,19.66,17.19,25.08,29.41C983,2399.61,969.44,2416.87,969.44,2416.87Z"/><path class="cls-24" d="M904.4,2521.93c-.41-.08-.84-.12-1.24-.17s-.93-.08-1.38-.1l-1.26-.07a34.93,34.93,0,0,0-11.86,1.63c-6.36,2-12.26,5.64-18.22,10.06-1.63,1.2-3.26,2.46-4.91,3.75-.64.51-1.28,1-1.95,1.54-2,1.54-3.92,3.13-5.92,4.74-7.39,5.89-15.43,12-25,16.89-30.94,15.89-82.9,8.08-125.14-37.09-42-45-43.95-12.77-96.51-4.54,15-8.06,30.18-15.42,43-20,57.18-20.33,157.58,35.5,145.14,4.07-8.79-22.27,10.08-53.9,42.88-73.21C891.45,2455.56,896.25,2505.86,904.4,2521.93Z"/><path class="cls-15" d="M880.16,2507.74s15.38,18,7.13,72.16c0,0,19,23.81,49.4,24.63S974,2575.41,974,2575.41s-13.82-11.73-16.73-53.09l-43-22.61Z"/><path class="cls-16" d="M1537.63,3324.19l-18.52-85.26,66.67-2.76-1.13,42.4-1,35.58-.1,3.84s-7.77,13.48-26.13,19.7S1537.63,3324.19,1537.63,3324.19Z"/><path class="cls-29" d="M1583.59,3318c4.16-4.15,7.14,15.88,12.49,18.32s11.29,3.12,17.13,3.78l35.6,4c7.61.85,15.3,1.73,22.53,4.28s14.05,7,18.06,13.49a4.44,4.44,0,0,1,.88,3.2,4.7,4.7,0,0,1-1.78,2.35c-9.91,8.38-22.13,13.6-34.58,17.28-6.68,2-13.47,3.55-20.28,5-7.3,1.57-14.61,3-21.93,4.51l-7.83,1.56-49,9.81c-3.88.78-8.4,1.39-11.36-1.23-1.65-1.47-2.43-3.66-3.08-5.77a119.94,119.94,0,0,1-4.58-49.27c1-8.37,2.83-16.79,1.72-25.15C1537.63,3324.19,1577.24,3324.32,1583.59,3318Z"/><path class="cls-13" d="M1588.31,3331.91q-2.67,8.25-6,16.25c-.41,1,1.06,1.77,1.47.77q3.43-8.19,6.16-16.64c.33-1-1.29-1.39-1.62-.38Z"/><path class="cls-13" d="M1600.11,3337.61a71.09,71.09,0,0,0-4.06,20.4c0,1.08,1.61,1,1.67-.05a70.05,70.05,0,0,1,4-20c.36-1-1.27-1.37-1.62-.37Z"/><path class="cls-13" d="M1614,3341.24a54.3,54.3,0,0,0-.67,15.43c.11,1.06,1.77,1,1.67-.05a52.48,52.48,0,0,1,.62-15c.2-1.05-1.42-1.43-1.62-.37Z"/><path class="cls-13" d="M1626.13,3342.09a41.3,41.3,0,0,0,.79,12.88c.23,1.05,1.83.56,1.6-.48a39.47,39.47,0,0,1-.72-12.45c.1-1.07-1.57-1-1.67.05Z"/><path class="cls-13" d="M1675.78,3349.94a9.69,9.69,0,0,1,1.52,5.78c-.22,3.38-1.94,6.46-4,9.1a35,35,0,0,1-17.15,11.84c-8.42,2.61-17.51,1.94-26.35,2.47-22.31,1.34-43.26,10.32-65.18,14.36-4.7.87-9.88,1.42-14-1.1-2.81-1.71-4.72-4.6-6.25-7.54a50.91,50.91,0,0,1-5.58-27.1c.38-5,1.52-10,1.73-15.05a23.33,23.33,0,0,0-2.79-12.84c-.08,6.35-1.32,12.72-2,19.06a120.1,120.1,0,0,0,4.57,49.27c.66,2.11,1.43,4.3,3.09,5.76,3,2.63,7.48,2,11.36,1.24l48.95-9.81,7.83-1.57c7.31-1.46,14.63-2.93,21.92-4.51,6.81-1.47,13.61-3,20.29-5,12.44-3.69,24.66-8.91,34.58-17.28a4.68,4.68,0,0,0,1.78-2.36,4.43,4.43,0,0,0-.89-3.19A31.59,31.59,0,0,0,1675.78,3349.94Z"/><path class="cls-15" d="M1583.69,3314.15c-10.91-6.05-17.3-26.46-14.85-31.9,1.59-3.53,9.26-4,15.81-3.68Z"/><path class="cls-15" d="M992.62,2513.66c-13.38,45.45-84.17,36.34-99.18,8-2.12-4-4.5-8.54-7-13.32-3.36-6.36-7-13.23-10.52-20q-2.13-4.08-4.25-8.11c-6.77-12.94-13-25-16.8-32.26l-3.76-7.18,13.72-6.16L951,2396l4.25-1.91S1006,2468.19,992.62,2513.66Z"/><path class="cls-15" d="M888.9,2506.07a15,15,0,0,1-2.47,2.27,15.52,15.52,0,0,1-8.53,3c-14,.78-30.72-14.68-25.51-27.42,3.77-9.21,12.41-7.24,19.27-3.73a50.61,50.61,0,0,1,6.35,3.86c2,1.44,3.28,2.53,3.28,2.53Z"/><path class="cls-16" d="M960.18,2544l-.49-.64c-40.39,3.49-71-27.32-71-27.32s31,52.67,54,57.49c12.81,2.69,21.64-.45,27-3.75C966.67,2565,962.89,2556.86,960.18,2544Z"/><path class="cls-20" d="M1169.81,3646.23c-31.39-3.88-44.35-138.67-30.17-172.6s-106.29,80.25-112.58,128.46S1169.81,3646.23,1169.81,3646.23Z"/><path class="cls-4" d="M1144.86,3638.16c-16.78-3.5-9.83-14.19-25.62-16.31s-15.16-9.79-29.29-9.23-15.94-5-25.48-8-12.09.13-18-4.07-23.8-8.38-30.75-11.28-10.27-1.46-14.81-8.61c-1.69-2.34-5.05,8.07-7.38,14.31-.09.25-.16.48-.23.72a7.49,7.49,0,0,0-2.11,3c-2.75,6.07-7.7,15.82-4.85,15.35,8.26-1.88,9.59,1.5,16.58,4.34s22.63,12.51,29.76,13.66,6.73,5.18,15.62,9.77,14.1,1.91,23.73,12.26,14.59,4.47,27.29,14.09,15.29-2.85,29.67,6.49,16.79,15.87,23.39,11.87c-.3.1,1-.92,8-5.66a65.05,65.05,0,0,0,6.9-5.33c4.94-.35,6.87-5.58,4.2-19.6-1.57-8.23-1.8-9.91-1.67-9.62C1168,3638.74,1161.51,3641.64,1144.86,3638.16Z"/><path class="cls-4" d="M1610,3235.2c-13.78,4.27-13-6.43-25.51-1.54s-15.15-1-25.32,5.15-13.79,2.81-22,4.49-8.85,5-14.89,4.33-20.92,3.54-27.23,4.24-8.15,3.13-14.41-.29c-2.2-1-.43,8,.41,13.54,0,.23.08.42.12.63a6.37,6.37,0,0,0-.34,3c.45,5.59.79,14.78,2.69,13.27,5.32-4.75,7.67-2.81,14-3.57s21.77,0,27.48-2.08,7.07,1.06,15.48.81,11.16-4.35,22.48-.66,12.56-2.67,25.83-.77,10.09-8.34,24.48-7.33,18.83,4.82,22.06-.82c-.18.21.39-1.1,3.55-7.41a54.51,54.51,0,0,0,2.9-6.74c3.49-2.27,2.78-6.91-4.91-16.13-4.51-5.42-5.37-6.56-5.15-6.4C1627.2,3226.2,1623.64,3231,1610,3235.2Z"/><path class="cls-4" d="M1607.87,3262.17l-89.52,5.75c-8-42.85-1.83-170.85-5-259.87-3.45-95-26.58-128.33-133.52-108.62-100.62,18.55-190.16-31-173.23-69.39,72.86-1.27,230.79-3.76,278.21-2.43,62.33,1.77,63.14,50.59,63.14,50.59Z"/><path class="cls-12" d="M1364.08,2344.45s-45,240.32-75.25,277.6c-25.32,31.15-163.14,39.45-207.71,41.33-8.75.37-13.92.5-13.92.5l-45.58-84.77-14.55-27.1-.26-.47s1.37.11,3.88.28c4.35.34,12.16.92,22.3,1.56,52.56,3.41,167.82,9.22,189.3-3.51,34.06-20.22,91.77-215.37,91.77-215.37l43.14,8.57Z"/><path class="cls-16" d="M728.73,3150.68c-3.53,4.41-6.53,6.56-8.53,7.61,2.79-7.31,11-22,7.91-33.15-2.59-9.39-8.36,4.7-13.89,17.05,4.87-19,7.27-30.92,14-23.67S735.17,3142.64,728.73,3150.68Z"/><path class="cls-13" d="M1364.08,2344.45s-45,240.32-75.25,277.6c-25.32,31.15-163.14,39.45-207.71,41.33,5.61,25.56,12,51,20.45,70.13-1.29-2.25-42.11-74.37-49.83-129,0,0,108.61,43.88,165.79,18.86s86.29-129.1,86.29-129.1c23.81-57.65,43.8-123,53.38-151.25Z"/><path class="cls-11" d="M872,2480.19c-21.34-5.23-46.79-36-61.26-17.82s-4.26,47.65-12.8,47.62-23.38-27-10.52-56.2,51.24-52,63.67-34.71S872,2480.19,872,2480.19Z"/><path class="cls-16" d="M952.06,2400.1c-.37,30.38-29.31,22.88-32.89,48.24-2.94,20.94-31.92,22.49-41.16,35.71a14.54,14.54,0,0,0-2.1,4.25,16.34,16.34,0,0,0-.69,6,87.36,87.36,0,0,0,2.68,17c-14,.78-30.72-14.68-25.51-27.42,3.77-9.21,12.41-7.24,19.27-3.73-6.77-12.94-13-25-16.8-32.26,3.08-4.55,6.45-9,10-13.34L951,2396A4.38,4.38,0,0,1,952.06,2400.1Z"/><path class="cls-11" d="M963.6,2398.88s4.22,14.42-12.36,16.95-33.64-3.35-36.09,8.65-2.86,32.16-20.57,29.65-8.51,26.38-22.58,26.06l-23.06-17s-12.58-39.45-9.87-40,60.71-21.6,60.71-21.6l49.52-19.8Z"/><path class="cls-30" d="M1531.08,3486.38c-292.35,119.35-599,112-917.57-.45a22.85,22.85,0,0,1-15.26-21.53V3084.59a22.79,22.79,0,0,1,28.91-22c312.21,87.61,609.39,94.41,888.14,2a22.8,22.8,0,0,1,30,21.62v379A22.85,22.85,0,0,1,1531.08,3486.38Z"/><path class="cls-31" d="M1411.13,3281.8c-216,88.44-442.68,82.94-678.12-.35a15.48,15.48,0,0,1-10.28-14.59v-56.7a15.5,15.5,0,0,1,19.72-14.9c231.33,65.18,451.49,70.23,657.9,1.39a15.52,15.52,0,0,1,20.48,14.67v56.11A15.54,15.54,0,0,1,1411.13,3281.8Z"/><path class="cls-31" d="M1127.26,3264.69v62.36a18.63,18.63,0,0,1-18.07,18.65c-122.75,3.35-248.39-19-376.63-64.42a14.79,14.79,0,0,1-9.83-14v-58A14.81,14.81,0,0,1,741.59,3195c125.64,35.46,248,53.21,366.63,51A18.65,18.65,0,0,1,1127.26,3264.69Z"/><path class="cls-31" d="M1411.7,3430.34c-216.34,88.74-443.33,83.24-679.13-.27a14.81,14.81,0,0,1-9.84-14v-58a14.83,14.83,0,0,1,18.88-14.25c232,65.5,452.7,70.56,659.62,1.34a14.84,14.84,0,0,1,19.6,14v57.48A14.78,14.78,0,0,1,1411.7,3430.34Z"/><path class="cls-31" d="M956.48,3404.92l-4.52,60a18.55,18.55,0,0,1-21.55,16.89q-98-16.17-198.19-51.87a14.3,14.3,0,0,1-9.49-13.49v-59.07a14.31,14.31,0,0,1,18.21-13.76q101.17,28.6,199.45,41.56A18.53,18.53,0,0,1,956.48,3404.92Z"/><g class="cls-32"><path class="cls-7" d="M1309.66,1925.18v476.08s411.67,40.8,411.67,217.63V2056.1S1721.33,1925.18,1309.66,1925.18Z"/><path class="cls-33" d="M1721.33,2056.09v4A32,32,0,0,0,1721.33,2056.09Z"/><path class="cls-33" d="M1721.33,2056.09v4A32,32,0,0,0,1721.33,2056.09Z"/><path class="cls-7" d="M1213.62,2314.29V2846c205.21-32.1,417.41-97,507.71-227.1V2060.13C1720.12,2087.74,1692.24,2249,1213.62,2314.29Z"/><path class="cls-7" d="M1687.19,2057.86c-.83-3.4-7.37-23.9-48-45.61-42.39-22.66-127.63-49.4-295.38-52.61v411.47c39.12,5.5,110.1,17.54,181.92,40.08q104.28,32.73,161.47,79Z"/><path class="cls-7" d="M1247.76,2805.69c219.2-39,370.34-107,439.43-197.87V2183.5q-9.06,8.22-19.76,16.55c-85.77,66.52-226.87,114.86-419.67,143.83Z"/></g><path class="cls-31" d="M1293,2545.07l7.12,157.81a11,11,0,0,0,13.65,7.34c110.44,5.25,267.14-47.07,329.33-123.23l-1.73-5.29q-3.16,1.17-6.83,2.49c-11.93,4.25-25.06-6.37-34.55-10.2a21.88,21.88,0,0,0-2.26-.79c-4.32-1.26-7.68-.49-9.53,4.76-3.79,10.75-17.25,16.11-31.17,16.53-.68,0-1.34.05-2,0a52.07,52.07,0,0,1-20.83-4.13c-8.23-3.7-18.51-3.93-28.11-1.88-.65.13-1.28.26-1.9.43-10.6,2.57-20.11,7.89-24.72,14.28-3.24,4.48-8.83,7.3-15.56,8.46-.62.13-1.28.23-1.93.3-11.67,1.49-26.16-1.7-37.28-9.41-5.65-3.91-10.11-4.77-13.8-3.67a11.26,11.26,0,0,0-1.8.72c-7.17,3.58-11.49,14.84-17,24.28-3.36,5.73-12.21,4.88-22.78-.07-.78-.38-1.59-.78-2.38-1.19-16.28-8.41-35.9-25.78-46.1-44-5.5-9.77-13.83-18.76-14.56-18.9C1293,2557.26,1300.15,2550.07,1293,2545.07Z"/><rect class="cls-31" x="1412.72" y="2025.97" width="48.54" height="324.3" rx="5.75" transform="translate(2873.98 4376.24) rotate(180)"/><rect class="cls-31" x="1517.15" y="2064.21" width="48.54" height="324.3" rx="5.75" transform="translate(3082.83 4452.72) rotate(180)"/><rect class="cls-31" x="1600.98" y="2100.98" width="48.54" height="324.3" rx="5.75" transform="translate(3250.5 4526.25) rotate(180)"/></g></g></g></svg>